<svg xmlns="http://www.w3.org/2000/svg" width="36.834" height="36.824" viewBox="0 0 36.834 36.824">
  <g id="noun_Earth_2784328" transform="translate(-3.986 -4)">
    <g id="Group_248" data-name="Group 248" transform="translate(3.986 4)">
      <path id="Path_384" data-name="Path 384" d="M39.576,10H33V24.467h6.576ZM35.63,23.152H34.315V21.836H35.63Zm0-2.63H34.315V19.206H35.63Zm0-2.63H34.315V16.576H35.63Zm0-2.63H34.315V13.945H35.63Zm0-2.63H34.315V11.315H35.63Zm2.63,10.521H36.945V21.836h1.315Zm0-2.63H36.945V19.206h1.315Zm0-2.63H36.945V16.576h1.315Zm0-2.63H36.945V13.945h1.315Zm0-2.63H36.945V11.315h1.315Z" transform="translate(-13.921 -6.055)" fill="#fff"/>
      <path id="Path_385" data-name="Path 385" d="M27.576,4H21V22.412h6.576ZM23.63,19.782H22.315V18.467H23.63Zm0-2.63H22.315V15.836H23.63Zm0-2.63H22.315V13.206H23.63Zm0-2.63H22.315V10.576H23.63Zm0-2.63H22.315V7.945H23.63Zm0-2.63H22.315V5.315H23.63Zm2.63,13.152H24.945V18.467h1.315Zm0-2.63H24.945V15.836h1.315Zm0-2.63H24.945V13.206h1.315Zm0-2.63H24.945V10.576h1.315Zm0-2.63H24.945V7.945h1.315Zm0-2.63H24.945V5.315h1.315Z" transform="translate(-9.812 -4)" fill="#fff"/>
      <path id="Path_386" data-name="Path 386" d="M50.967,21.576a1.973,1.973,0,0,0,1.89-1.447.658.658,0,0,1,1.109-.277,1.3,1.3,0,0,0,.947.409,1.315,1.315,0,1,0,0-2.63c-.016,0-.066.011-.084.011a.658.658,0,0,1-.658-.881,1.287,1.287,0,0,0,.084-.445,1.315,1.315,0,0,0-2.63,0,1.288,1.288,0,0,0,.085.445.658.658,0,0,1-.088.614.674.674,0,0,1-.559.268c-.021,0-.095-.009-.118-.012a1.973,1.973,0,0,0,.022,3.945Z" transform="translate(-19.394 -7.767)" fill="#fff"/>
      <path id="Path_387" data-name="Path 387" d="M48.138,35.764,47.431,34H41.55l-.443,1.771,1.71,1.71a.658.658,0,0,1,.193.465v2.63a.658.658,0,0,1-.293.547l-1.426.95.671,1.008,1.5-.5a.657.657,0,0,1,.367-.014l2.074.518.94-2.352-1.666-1.666a.658.658,0,0,1,.054-.978Z" transform="translate(-16.697 -14.273)" fill="#fff"/>
      <path id="Path_388" data-name="Path 388" d="M5.31,20.261a1.3,1.3,0,0,0,.947-.408.658.658,0,0,1,1.109.278,1.968,1.968,0,1,0,1.907-2.5c-.056.007-.12.012-.144.012a.658.658,0,0,1-.618-.882,1.288,1.288,0,0,0,.087-.446,1.315,1.315,0,0,0-2.63,0,1.288,1.288,0,0,0,.085.445.658.658,0,0,1-.091.619.646.646,0,0,1-.567.263c-.018,0-.084-.012-.1-.012h0a1.315,1.315,0,0,0,.018,2.63Z" transform="translate(-3.986 -7.767)" fill="#fff"/>
      <path id="Path_389" data-name="Path 389" d="M40.535,35.729a.658.658,0,0,1-.2.758l-2.714,2.17,1.453,1.453a.658.658,0,0,1,.146.71l-1.315,3.288a.658.658,0,0,1-.77.395l-2.445-.611-1.791.6a.658.658,0,0,1-.755-.259l-1.315-1.973a.658.658,0,0,1,.182-.912l1.677-1.12V38.218l-1.78-1.78a.658.658,0,0,1-.173-.625L31.191,34H20.854v1.315a.658.658,0,0,1-.45.624l-1.523.508v.841a.658.658,0,0,1-.364.592l-1.118.56-1.046,2.092,1.007,1.512,2.474,1.237a.658.658,0,0,1,.27.927L18.131,47.5a.658.658,0,0,1-.565.313.67.67,0,0,1-.208-.034l-1.831-.61-.715.089a18.3,18.3,0,0,0,8.381,3.611l.948-1.9V46.494a.661.661,0,0,1,.11-.365l1.315-1.973a.658.658,0,0,1,.841-.224l1.315.658a.658.658,0,0,1,.295.295l.61,1.22,1.047,1.047h2.161l1.807-1.2a.658.658,0,0,1,.874.132l1.674,2.046A18.318,18.318,0,0,0,44.476,34H39.843Z" transform="translate(-7.693 -14.273)" fill="#fff"/>
      <path id="Path_390" data-name="Path 390" d="M12.125,45.87l1.473.491,1.336-2.227-2-.994a.664.664,0,0,1-.253-.224l-1.315-1.973a.658.658,0,0,1-.041-.658l1.315-2.63a.658.658,0,0,1,.295-.295l.952-.48v-.909a.658.658,0,0,1,.45-.624l1.523-.508V34H4.078A18.326,18.326,0,0,0,9.787,46.1l2.049-.256A.654.654,0,0,1,12.125,45.87Zm-2-.663a16.927,16.927,0,0,1-4.666-9.814l1.306-.157a15.623,15.623,0,0,0,4.306,9.057Z" transform="translate(-4.017 -14.273)" fill="#fff"/>
      <path id="Path_391" data-name="Path 391" d="M37.485,54.277a.662.662,0,0,1-.365.11H34.49a.657.657,0,0,1-.465-.193L32.71,52.88a.658.658,0,0,1-.124-.171l-.559-1.118-.6-.3-.883,1.321v2.433a.658.658,0,0,1-.069.294l-.806,1.613c.506.041,1.016.066,1.533.066a18.422,18.422,0,0,0,8.933-2.29l-1.174-1.435Z" transform="translate(-12.78 -20.194)" fill="#fff"/>
      <rect id="Rectangle_110" data-name="Rectangle 110" width="1.315" height="5.261" transform="translate(1.982 13.152)" fill="#fff"/>
      <rect id="Rectangle_111" data-name="Rectangle 111" width="1.315" height="5.261" transform="translate(33.546 13.152)" fill="#fff"/>
    </g>
  </g>
</svg>
