<svg xmlns="http://www.w3.org/2000/svg" width="35.614" height="39.697" viewBox="0 0 35.614 39.697">
  <g id="noun_connection_986415" transform="translate(-2.8 0.7)">
    <path id="Path_446" data-name="Path 446" d="M34.068,23.231A3.726,3.726,0,0,0,31.11,24.71L26.2,21.87a6.016,6.016,0,0,0,0-5.444l4.852-2.781a3.613,3.613,0,0,0,2.9,1.479h-.3V23.29a.877.877,0,0,1,.414-.059h.473V15.066h-.059A3.794,3.794,0,1,0,31.11,9.03L24.068,5.066a4.389,4.389,0,0,0,.3-1.479,3.787,3.787,0,0,0-7.574,0,4.12,4.12,0,0,0,.3,1.479L10.1,9.09a3.767,3.767,0,0,0-6.8,2.248,3.733,3.733,0,0,0,3.373,3.728v8.165A3.8,3.8,0,0,0,7.087,30.8a3.734,3.734,0,0,0,3.077-1.6l6.982,4.024a4.12,4.12,0,0,0-.3,1.479,3.787,3.787,0,1,0,7.574,0,4.12,4.12,0,0,0-.3-1.479l6.923-4.024a1.293,1.293,0,0,0-.178-.3A3.683,3.683,0,0,0,34.127,30.8a3.813,3.813,0,0,0,3.787-3.787A3.9,3.9,0,0,0,34.068,23.231Zm-13.491,1.3a5.384,5.384,0,1,1,5.384-5.384A5.4,5.4,0,0,1,20.577,24.533Zm-13.313-1.3H7.5V15.066h.118A3.76,3.76,0,0,0,10.1,13.586l4.852,2.781a6.147,6.147,0,0,0-.651,2.722,5.959,5.959,0,0,0,.651,2.722l-4.911,2.84A3.991,3.991,0,0,0,7.264,23.231ZM31.583,9.918a2.963,2.963,0,0,1,2.485-1.479,2.9,2.9,0,1,1-2.9,2.9A2.359,2.359,0,0,1,31.583,9.918Zm-1.006-.059a4.12,4.12,0,0,0-.3,1.479,3.876,3.876,0,0,0,.3,1.479L25.725,15.6a6.252,6.252,0,0,0-4.734-2.722V7.255a3.846,3.846,0,0,0,2.663-1.6c0,.059-.059.059-.059.118l6.982,4.083Zm-10-9.171a2.9,2.9,0,0,1,2.9,2.9,2.359,2.359,0,0,1-.414,1.42,2.9,2.9,0,0,1-2.485,1.42,2.771,2.771,0,0,1-2.485-1.479,3.249,3.249,0,0,1-.414-1.42A2.854,2.854,0,0,1,20.577.688ZM17.56,5.835h0a3.79,3.79,0,0,0,2.6,1.479v5.621a6.252,6.252,0,0,0-4.734,2.722l-4.852-2.781a3.846,3.846,0,0,0,0-2.958h0Zm-13.372,5.5a2.9,2.9,0,0,1,2.9-2.9A2.862,2.862,0,0,1,9.631,9.918a2.973,2.973,0,0,1,.355,1.42,2.9,2.9,0,0,1-5.8,0Zm5.444,17.1a2.862,2.862,0,0,1-2.544,1.479,2.9,2.9,0,1,1,2.9-2.9A2.811,2.811,0,0,1,9.631,28.438Zm.947,0a3.808,3.808,0,0,0,.3-1.42,3.452,3.452,0,0,0-.355-1.538l4.852-2.84A6.252,6.252,0,0,0,20.1,25.361v5.621a3.655,3.655,0,0,0-2.6,1.538h0l-6.923-4.083Zm10,9.23a2.9,2.9,0,0,1-2.9-2.9,2.359,2.359,0,0,1,.414-1.42,2.9,2.9,0,0,1,2.485-1.42,2.771,2.771,0,0,1,2.485,1.479,3.249,3.249,0,0,1,.414,1.42A2.892,2.892,0,0,1,20.577,37.668ZM23.6,32.462c.059.059.059.118.118.237a3.689,3.689,0,0,0-2.722-1.716V25.361a6.252,6.252,0,0,0,4.734-2.722l4.852,2.84a3.452,3.452,0,0,0-.355,1.538,3.808,3.808,0,0,0,.3,1.42h0Zm10.473-2.544a2.984,2.984,0,0,1-2.544-1.479,2.749,2.749,0,0,1-.355-1.361,2.9,2.9,0,1,1,2.9,2.84Z" transform="translate(0 0)" fill="#c8a375" stroke="#c8a375" stroke-width="1"/>
  </g>
</svg>
