<svg xmlns="http://www.w3.org/2000/svg" width="73.006" height="76.456" viewBox="0 0 73.006 76.456">
  <g id="passport" transform="translate(-10.585)">
    <g id="Group_251" data-name="Group 251" transform="translate(18.407 21.861)">
      <g id="Group_250" data-name="Group 250">
        <path id="Path_414" data-name="Path 414" d="M74.229,134.152A15.644,15.644,0,1,0,89.873,149.8,15.644,15.644,0,0,0,74.229,134.152Zm11.578,9.778H80.169a25.326,25.326,0,0,0-2.241-6.571A13.012,13.012,0,0,1,85.807,143.93ZM78.14,149.8a27.716,27.716,0,0,1-.207,3.259H70.526a25.847,25.847,0,0,1,0-6.518h7.413A28.011,28.011,0,0,1,78.14,149.8Zm-4.29-13c.129,0,.249-.038.379-.038s.253.035.383.039A21.664,21.664,0,0,1,77.5,143.93H70.958A21.635,21.635,0,0,1,73.85,136.8Zm-3.319.562a25.4,25.4,0,0,0-2.239,6.571h-5.64A13.015,13.015,0,0,1,70.531,137.359ZM61.192,149.8a12.88,12.88,0,0,1,.463-3.259H67.9a30.759,30.759,0,0,0-.185,3.259,30.261,30.261,0,0,0,.188,3.259H61.655A12.88,12.88,0,0,1,61.192,149.8Zm1.459,5.867H68.3a25.853,25.853,0,0,0,2.229,6.569A13.013,13.013,0,0,1,62.651,155.663Zm11.956,7.132c-.129,0-.249.038-.379.038s-.25-.034-.379-.038a21.821,21.821,0,0,1-2.889-7.132H77.5A21.777,21.777,0,0,1,74.608,162.795Zm3.325-.563a25.78,25.78,0,0,0,2.229-6.569h5.646A13.015,13.015,0,0,1,77.933,162.232Zm2.627-9.177a30.394,30.394,0,0,0,.188-3.259,30.763,30.763,0,0,0-.184-3.259H86.8a11.707,11.707,0,0,1,0,6.518Z" transform="translate(-58.585 -134.152)"/>
      </g>
    </g>
    <g id="Group_253" data-name="Group 253" transform="translate(21.014 60.972)">
      <g id="Group_252" data-name="Group 252">
        <rect id="Rectangle_123" data-name="Rectangle 123" width="26.073" height="2.607"/>
      </g>
    </g>
    <g id="Group_255" data-name="Group 255" transform="translate(63.889 42.19)">
      <g id="Group_254" data-name="Group 254" transform="translate(0 0)">
        <rect id="Rectangle_124" data-name="Rectangle 124" width="5.215" height="2.607" transform="matrix(0.259, -0.966, 0.966, 0.259, 0, 5.037)"/>
      </g>
    </g>
    <g id="Group_257" data-name="Group 257" transform="translate(57.816 52.259)">
      <g id="Group_256" data-name="Group 256" transform="translate(0 0)">
        <rect id="Rectangle_125" data-name="Rectangle 125" width="18.251" height="2.607" transform="matrix(0.259, -0.966, 0.966, 0.259, 0, 17.629)"/>
      </g>
    </g>
    <g id="Group_259" data-name="Group 259" transform="translate(10.585)">
      <g id="Group_258" data-name="Group 258">
        <path id="Path_415" data-name="Path 415" d="M79.724,8.277,49.5.179a5.209,5.209,0,0,0-6.387,3.687L40.39,14.039h-27.2a2.607,2.607,0,0,0-2.607,2.607V68.794A2.607,2.607,0,0,0,13.192,71.4H43.307l18.2,4.876a5.209,5.209,0,0,0,6.387-3.687L83.412,14.664A5.215,5.215,0,0,0,79.724,8.277ZM13.192,68.794V16.647H52.3a2.61,2.61,0,0,1,2.607,2.607V66.186A2.61,2.61,0,0,1,52.3,68.794Zm67.7-54.8L65.372,71.914a2.6,2.6,0,0,1-3.194,1.844l-9.092-2.436a5.2,5.2,0,0,0,4.43-5.135V45.516l1.335.358,1.35-5.037-2.519-.675-.167.623V20.065l2.661.713,3.084,10.081,2.159.579-.2-9.31,3.814,1.022,1.676,2.956,1.439.386L71.9,22.376l2.272-3.44L72.73,18.55,69.8,20.272,65.987,19.25l4.832-7.96-2.159-.579L60.949,17.9l-4.067-1.09a5.193,5.193,0,0,0-4.58-2.771H43.089l2.545-9.5A2.6,2.6,0,0,1,48.827,2.7l30.222,8.1a2.608,2.608,0,0,1,1.844,3.193Z" transform="translate(-10.585)"/>
      </g>
    </g>
    <g id="Group_261" data-name="Group 261" transform="translate(63.894 35.298)">
      <g id="Group_260" data-name="Group 260" transform="translate(0 0)">
        <rect id="Rectangle_126" data-name="Rectangle 126" width="2.607" height="2.563" transform="translate(0 2.521) rotate(-75.179)"/>
      </g>
    </g>
    <g id="Group_263" data-name="Group 263" transform="translate(68.842 36.613)">
      <g id="Group_262" data-name="Group 262" transform="translate(0 0)">
        <rect id="Rectangle_127" data-name="Rectangle 127" width="2.607" height="2.563" transform="translate(0 2.52) rotate(-75.179)"/>
      </g>
    </g>
    <g id="Group_265" data-name="Group 265" transform="translate(58.946 33.987)">
      <g id="Group_264" data-name="Group 264" transform="translate(0 0)">
        <rect id="Rectangle_128" data-name="Rectangle 128" width="2.607" height="2.563" transform="translate(0 2.52) rotate(-75.179)"/>
      </g>
    </g>
  </g>
</svg>
